<?xml version="1.0" encoding="utf-8"?>
<svg version="1.1" xmlns:xlink="http://www.w3.org/1999/xlink" width="17px" height="14px" xmlns="http://www.w3.org/2000/svg">
  <g transform="matrix(1 0 0 1 -114 -288 )">
    <path d="M 7.65204326923077 1.20112517580872  C 7.78145032051282 1.3258321612752  7.84615384615385 1.47351148616971  8 1.64416315049226  L 8 12.3558368495077  C 7.84615384615385 12.5264885138303  7.78145032051282 12.6741678387248  7.65204326923077 12.7988748241913  C 7.52263621794872 12.9235818096578  7.36939102564103 12.985935302391  7.19230769230769 12.985935302391  C 7.01522435897436 12.985935302391  6.86197916666667 12.9235818096578  6.73257211538462 12.7988748241913  L 3.33052884615385 9.52039381153305  L 0.653846153846154 9.52039381153305  C 0.476762820512821 9.52039381153305  0.323517628205128 9.45804031879981  0.194110576923077 9.33333333333333  C 0.0647035256410256 9.20862634786685  0 9.06094702297234  0 8.89029535864979  L 0 5.10970464135021  C 0 4.93905297702766  0.0647035256410256 4.79137365213314  0.194110576923077 4.66666666666667  C 0.323517628205128 4.54195968120019  0.476762820512821 4.47960618846695  0.653846153846154 4.47960618846695  L 3.33052884615385 4.47960618846695  L 6.73257211538462 1.20112517580872  C 6.86197916666667 1.07641819034224  7.01522435897436 1.014064697609  7.19230769230769 1.014064697609  C 7.36939102564103 1.014064697609  7.52263621794872 1.07641819034224  7.65204326923077 1.20112517580872  Z M 11.3350360576923 5.60196905766526  C 11.624499198718 6.0351617440225  11.7692307692308 6.50117205813408  11.7692307692308 7  C 11.7692307692308 7.49882794186592  11.624499198718 7.96319737458978  11.3350360576923 8.39310829817159  C 11.0455729166667 8.8230192217534  10.6624599358974 9.12986404125644  10.1856971153846 9.31364275668073  C 10.1175881410256 9.34646038443507  10.0324519230769 9.36286919831224  9.93028846153846 9.36286919831224  C 9.75320512820513 9.36286919831224  9.59995993589744 9.30215658696671  9.47055288461539 9.18073136427567  C 9.34114583333333 9.05930614158462  9.27644230769231 8.90998593530239  9.27644230769231 8.73277074542897  C 9.27644230769231 8.59493670886076  9.31730769230769 8.47843413033286  9.39903846153846 8.38326300984529  C 9.48076923076923 8.28809188935771  9.57952724358974 8.20604781997187  9.6953125 8.13713080168776  C 9.81109775641026 8.06821378340366  9.92688301282051 7.99273323956868  10.0426682692308 7.91068917018284  C 10.158453525641 7.828645100797  10.2572115384615 7.71050164088139  10.3389423076923 7.556258790436  C 10.4206730769231 7.40201593999062  10.4615384615385 7.21659634317862  10.4615384615385 7  C 10.4615384615385 6.78340365682138  10.4206730769231 6.59798406000938  10.3389423076923 6.44374120956399  C 10.2572115384615 6.28949835911861  10.158453525641 6.171354899203  10.0426682692308 6.08931082981716  C 9.92688301282051 6.00726676043132  9.81109775641026 5.93178621659634  9.6953125 5.86286919831224  C 9.57952724358974 5.79395218002813  9.48076923076923 5.71190811064229  9.39903846153846 5.61673699015471  C 9.31730769230769 5.52156586966713  9.27644230769231 5.40506329113924  9.27644230769231 5.26722925457103  C 9.27644230769231 5.09001406469761  9.34114583333333 4.94069385841538  9.47055288461539 4.81926863572433  C 9.59995993589744 4.69784341303329  9.75320512820513 4.63713080168776  9.93028846153846 4.63713080168776  C 10.0324519230769 4.63713080168776  10.1175881410256 4.65353961556493  10.1856971153846 4.68635724331927  C 10.6624599358974 4.86357243319269  11.0455729166667 5.16877637130802  11.3350360576923 5.60196905766526  Z M 13.5162259615385 4.21870604781997  C 14.0951522435897 5.06868260665729  14.3846153846154 5.9957805907173  14.3846153846154 7  C 14.3846153846154 8.0042194092827  14.0951522435897 8.93131739334271  13.5162259615385 9.78129395218003  C 12.9372996794872 10.6312705110173  12.1710737179487 11.2498827941866  11.2175480769231 11.6371308016878  C 11.1290064102564 11.6699484294421  11.0438701923077 11.6863572433193  10.9621394230769 11.6863572433193  C 10.7782451923077 11.6863572433193  10.6215945512821 11.624003750586  10.4921875 11.4992967651195  C 10.362780448718 11.3745897796531  10.2980769230769 11.2269104547586  10.2980769230769 11.056258790436  C 10.2980769230769 10.8002812939522  10.4308894230769 10.6066572902016  10.6965144230769 10.4753867791842  C 11.0779246794872 10.2850445382091  11.3367387820513 10.14064697609  11.4729567307692 10.042194092827  C 11.9769631410256 9.68776371308017  12.3702924679487 9.24308485700891  12.6529447115385 8.70815752461322  C 12.9355969551282 8.17323019221753  13.0769230769231 7.60384435067979  13.0769230769231 7  C 13.0769230769231 6.39615564932021  12.9355969551282 5.82676980778247  12.6529447115385 5.29184247538678  C 12.3702924679487 4.75691514299109  11.9769631410256 4.31223628691983  11.4729567307692 3.957805907173  C 11.3367387820513 3.85935302390999  11.0779246794872 3.7149554617909  10.6965144230769 3.52461322081575  C 10.4308894230769 3.3933427097984  10.2980769230769 3.19971870604782  10.2980769230769 2.94374120956399  C 10.2980769230769 2.77308954524144  10.362780448718 2.62541022034693  10.4921875 2.50070323488045  C 10.6215945512821 2.37599624941397  10.7748397435897 2.31364275668073  10.9519230769231 2.31364275668073  C 11.0404647435897 2.31364275668073  11.1290064102564 2.3300515705579  11.2175480769231 2.36286919831224  C 12.1710737179487 2.75011720581341  12.9372996794872 3.36872948898265  13.5162259615385 4.21870604781997  Z M 15.7025240384615 2.84036568213783  C 16.5675080128205 4.10384435067979  17 5.49038912330051  17 7  C 17 8.50961087669948  16.5675080128205 9.8961556493202  15.7025240384615 11.1596343178622  C 14.8375400641026 12.4231129864041  13.6864983974359 13.3534927332396  12.2493990384615 13.9507735583685  C 12.1608573717949 13.9835911861228  12.0723157051282 14  11.9837740384615 14  C 11.8066907051282 14  11.6534455128205 13.9376465072668  11.5240384615385 13.8129395218003  C 11.3946314102564 13.6882325363338  11.3299278846154 13.5405532114393  11.3299278846154 13.3699015471167  C 11.3299278846154 13.1336146272855  11.4627403846154 12.9399906235349  11.7283653846154 12.789029535865  C 11.7760416666667 12.7627754336615  11.8526642628205 12.7283169245195  11.9582331730769 12.6856540084388  C 12.0638020833333 12.6429910923582  12.1404246794872 12.6085325832161  12.1881009615385 12.5822784810127  C 12.5014022435897 12.418190342241  12.7806490384615 12.2508204406939  13.0258413461538 12.0801687763713  C 13.8635817307692 11.4828879512424  14.5174278846154 10.7379278012189  14.9873798076923 9.84528832630098  C 15.4573317307692 8.95264885138303  15.6923076923077 8.0042194092827  15.6923076923077 7  C 15.6923076923077 5.9957805907173  15.4573317307692 5.04735114861697  14.9873798076923 4.15471167369902  C 14.5174278846154 3.26207219878106  13.8635817307692 2.51711204875762  13.0258413461538 1.91983122362869  C 12.7806490384615 1.74917955930614  12.5014022435897 1.58180965775902  12.1881009615385 1.41772151898734  C 12.1404246794872 1.39146741678387  12.0638020833333 1.35700890764182  11.9582331730769 1.31434599156118  C 11.8526642628205 1.27168307548054  11.7760416666667 1.23722456633849  11.7283653846154 1.21097046413502  C 11.4627403846154 1.06000937646507  11.3299278846154 0.866385372714486  11.3299278846154 0.630098452883264  C 11.3299278846154 0.459446788560711  11.3946314102564 0.311767463666196  11.5240384615385 0.187060478199718  C 11.6534455128205 0.062353492733239  11.8066907051282 0  11.9837740384615 0  C 12.0723157051282 0  12.1608573717949 0.0164088138771674  12.2493990384615 0.0492264416315054  C 13.6864983974359 0.646507266760429  14.8375400641026 1.57688701359587  15.7025240384615 2.84036568213783  Z " fill-rule="nonzero" fill="#c3cbd6" stroke="none" transform="matrix(1 0 0 1 114 288 )" />
  </g>
</svg>