<?xml version="1.0" encoding="utf-8"?>
<svg version="1.1" xmlns:xlink="http://www.w3.org/1999/xlink" width="73px" height="73px" xmlns="http://www.w3.org/2000/svg">
  <g transform="matrix(1 0 0 1 -94 -199 )">
    <path d="M 130.5 199  C 150.94 199  167 215.06  167 235.5  C 167 255.94  150.94 272  130.5 272  C 110.06 272  94 255.94  94 235.5  C 94 215.06  110.06 199  130.5 199  Z " fill-rule="nonzero" fill="#ffffff" stroke="none" />
    <path d="M 130.5 199.5  C 150.66 199.5  166.5 215.34  166.5 235.5  C 166.5 255.66  150.66 271.5  130.5 271.5  C 110.34 271.5  94.5 255.66  94.5 235.5  C 94.5 215.34  110.34 199.5  130.5 199.5  Z " stroke-width="1" stroke="#cccccc" fill="none" />
  </g>
</svg>