<?xml version="1.0" encoding="utf-8"?>
<svg version="1.1" xmlns:xlink="http://www.w3.org/1999/xlink" width="299px" height="68px" xmlns="http://www.w3.org/2000/svg">
  <g transform="matrix(1 0 0 1 -611 -509 )">
    <path d="M 298 67  L 0.453369846341099 67  C 0.453369846341099 67  0 33.3940379472375  0 33.5438973097916  C 4.40681347781445 33.4022893759487  16.392556704109 32.7196708157438  25.6002839900604 32.7196708157438  C 41.3926669709418 32.7196708157438  40.1081190729753 43.2098261945326  53.1047213347533 43.2098261945326  C 66.1013235965313 43.2098261945326  61.353458509519 23.8051194687435  81.213651807901 23.9778746667532  C 95.5703636087023 24.1027574688817  97.6613709906355 30.6522377656734  106.300116638775 30.7215459816889  C 121.865814696486 30.8464287838173  120.505705157462 -0.124506144035317  135.920279933059 0.000376658093179885  C 151.334854708657 0.125259460221676  143.337436792009 32.1965493586796  161.006744763933 34.2182644412851  C 170.829758101324 35.3422096604412  174.834525077337 34.0309402380925  187.906688980171 34.9675612540558  C 200.978852883006 35.904182270019  200.752167959836 54.8239267924773  216.015619453319 54.9488095946057  C 231.279070946803 55.0736923967341  228.004258030116 48.1517678488494  243.217810233785 48.2051382796701  C 259.657103401905 48.2628087137032  260.445864394746 55.4483408031195  272.535726963842 55.6981064073764  C 282.671739479425 55.9075072402015  290.791419443177 42.8351777881474  297.319945230488 43.2098261945326  C 297.501293169025 43.4346152383637  298 67  298 67  Z " fill-rule="nonzero" fill="#1890ff" stroke="none" transform="matrix(1 0 0 1 611 509 )" />
  </g>
</svg>