<?xml version="1.0" encoding="utf-8"?>
<svg version="1.1" xmlns:xlink="http://www.w3.org/1999/xlink" width="300px" height="59px" xmlns="http://www.w3.org/2000/svg">
  <g transform="matrix(1 0 0 1 -610 -508 )">
    <path d="M 0 33.397281675238  C 0 33.397281675238  9.89496439471007 32.8950726075992  25.6815869786368 32.8950726075992  C 41.4682095625636 32.8950726075992  40.1841302136317 43.4414630280132  53.175991861648 43.4414630280132  C 66.1678535096643 43.4414630280132  61.4217202441018 23.9327326294521  81.2746693794506 24.1064139239209  C 95.6261444557478 24.2319661908306  97.7163891261529 30.8165565773983  106.351983723296 30.8862363370442  C 121.912004069176 31.0117886039539  120.552390640895 -0.125173589649397  135.961342828077 0.000378677260378028  C 151.37029501526 0.125930944170153  143.375794220231 32.3691468301173  161.038657171923 34.4016998105155  C 170.858087487284 35.5316702127028  174.861393692777 34.2133714101509  187.928789420142 35.1550134119736  C 200.996185147508 36.0966554137964  200.769582909461 55.1178238506143  216.027466937945 55.2433761175239  C 231.285350966429 55.3689283844337  228.01173256373 48.4098971683424  243.219735503561 48.4635537044008  C 259.653032309105 48.5215332948898  260.441505595117 55.7455851851627  272.526958290946 55.9966897189821  C 284.612410986775 56.2477942528016  289.546471839453 42.1278335246442  297 42.6881494265551  " stroke-width="2" stroke="#1890ff" fill="none" transform="matrix(1 0 0 1 611 509 )" />
  </g>
</svg>