<?xml version="1.0" encoding="utf-8"?>
<svg version="1.1" xmlns:xlink="http://www.w3.org/1999/xlink" width="4px" height="4px" xmlns="http://www.w3.org/2000/svg">
  <g transform="matrix(1 0 0 1 -744 -507 )">
    <path d="M 746 507  C 747.12 507  748 507.88  748 509  C 748 510.12  747.12 511  746 511  C 744.88 511  744 510.12  744 509  C 744 507.88  744.88 507  746 507  Z " fill-rule="nonzero" fill="#ffffff" stroke="none" fill-opacity="0" />
    <path d="M 746 507.5  C 746.84 507.5  747.5 508.16  747.5 509  C 747.5 509.84  746.84 510.5  746 510.5  C 745.16 510.5  744.5 509.84  744.5 509  C 744.5 508.16  745.16 507.5  746 507.5  Z " stroke-width="1" stroke="#1890ff" fill="none" />
  </g>
</svg>