<?xml version="1.0" encoding="utf-8"?>
<svg version="1.1" xmlns:xlink="http://www.w3.org/1999/xlink" width="10px" height="15px" preserveAspectRatio="xMidYMin meet" viewBox="253 210  8 15" xmlns="http://www.w3.org/2000/svg">
  <path d="M 257 212  L 257 215  A 5 5 0 0 0 262 220 L 489 220  A 5 5 0 0 1 494 225 L 494 478  A 5 5 0 0 0 499 483 L 560 483  " stroke-width="2" stroke="#0099cc" fill="none" />
  <path d="M 257 210  A 3.5 3.5 0 0 0 253.5 213.5 A 3.5 3.5 0 0 0 257 217 A 3.5 3.5 0 0 0 260.5 213.5 A 3.5 3.5 0 0 0 257 210 Z M 552.6 491  L 562 483  L 552.6 475  L 556.2 483  L 552.6 491  Z " fill-rule="nonzero" fill="#0099cc" stroke="none" />
</svg>