<?xml version="1.0" encoding="utf-8"?>
<svg version="1.1" xmlns:xlink="http://www.w3.org/1999/xlink" width="17px" height="21px" xmlns="http://www.w3.org/2000/svg">
  <g transform="matrix(1 0 0 1 -436 -186 )">
    <path d="M 10.9077964097316 18.7529999900203  C 10.9077964097316 19.9946249847419  9.82988391483434 21  8.50045849415103 21  C 7.17236382314283 21  6.09445132824554 19.9946250065314  6.09445132824554 18.7529999900203  C 6.09445132824554 18.7529999900203  10.9077964097316 18.7529999900203  10.9077964097316 18.7529999900203  Z M 1.50334252504426 13.4452499996404  C 1.50334252504426 13.4452499996404  1.50334252504426 9.58124999754859  1.50334252504426 9.58124999754859  C 1.50334252504426 5.76841415707765  4.63724964546329 2.67749999967311  8.50311999350136 2.67749999967311  C 10.3595764033435 2.67749999967311  12.1399971918676 3.404857286122  13.4527101082442 4.69956155843419  C 14.7654230246208 5.99426583074638  15.5028974619585 7.75026165638235  15.5028974619585 9.58124999754859  C 15.5028974619585 9.58124999754859  15.5015667122834 13.4504999957945  15.5015667122834 13.4504999957945  C 15.5015667122834 13.4504999957945  16.9707215337263 16.902375005627  16.9707215337263 16.902375005627  C 17.0317731455446 17.0962849383294  16.9961911386809 17.3072513337004  16.8747781725967 17.4712250183543  C 16.7533652065124 17.6351987030083  16.560442591922 17.7328381011429  16.3545814295456 17.7344999952716  C 16.3545814295456 17.7344999952716  0.64766630843166 17.7344999952716  0.64766630843166 17.7344999952716  C 0.438180458210297 17.7343672452538  0.241679333015959 17.6343729678181  0.120168138497284 17.4660699885777  C -0.0013430560215113 17.2977670093372  -0.0328763484574637 17.081914899051  0.0355184753689954 16.8866249953751  C 0.0355184753689954 16.8866249953751  1.50334252504426 13.4452499996404  1.50334252504426 13.4452499996404  Z M 10.190518822111 1.66687498826089  C 10.190518822111 1.66687498826089  6.81039814409841 1.66687498826089  6.81039814409841 1.66687498826089  C 6.81039814409841 0.74549999862727  7.56892917048166 0  8.50045849415103 0  C 9.43464931717062 0  10.1905188442037 0.74549999862727  10.190518822111 1.66687498826089  Z " fill-rule="nonzero" fill="#252525" stroke="none" transform="matrix(1 0 0 1 436 186 )" />
  </g>
</svg>