<?xml version="1.0" encoding="utf-8"?>
<svg version="1.1" xmlns:xlink="http://www.w3.org/1999/xlink" width="18px" height="18px" xmlns="http://www.w3.org/2000/svg">
  <g transform="matrix(1 0 0 1 -114 -252 )">
    <path d="M 12.2633355840649 0.678162114558972  C 12.2633355840649 0.338062795846213  12.4881836596894 0  12.9378798109385 0  C 13.2761647535449 0  13.6124240378123 0.226054038186362  13.6124240378123 0.678162114558972  C 13.6124240378123 0.678162114558972  13.6124240378123 1.92247758601707  13.6124240389792 1.92239203066686  C 14.1249064963746 1.92200551068629  16.1991897366644 1.92044106315052  16.1991897366644 1.92044106315052  C 17.2120189061445 1.92044106315052  18 2.59860317770949  18 3.50281933045483  C 18 3.50281933045483  18 15.9439375221693  18 15.9439375221693  C 18 16.8481536749147  17.2120189061445 17.5263157894736  16.1991897366644 17.5263157894736  C 16.1991897366644 17.5263157894736  1.80081026333562 17.5263157894736  1.80081026333562 17.5263157894736  C 0.787981093855478 17.5263157894736  0 16.8481536749147  0 15.9439375221693  C 0 15.9439375221693  0 3.50485585332137  0 3.50485585332137  C 0 2.60063970057604  0.787981093855478 1.92247758601707  1.80081026333562 1.92247758601707  C 1.80081026333562 1.92247758601707  4.50101282916944 1.92247758601707  4.50101282916944 1.92247758601707  C 4.50101282916944 1.92247758601707  4.50101282916944 0.678162114558972  4.50101282916944 0.678162114558972  C 4.50101282916944 0.338062795846213  4.7258609047941 0  5.1755570560432 0  C 5.51384199864958 0  5.85010128291697 0.226054038186362  5.85010128291697 0.678162114558972  C 5.85010128291697 0.678162114558972  5.85010128291697 1.92247758601707  5.85010128291697 1.92247758601707  L 12.2633355840649 1.92247758601707  C 12.2633355840649 1.92247758601707  12.2633355840649 0.678162114558972  12.2633355840649 0.678162114558972  Z M 15.7494935854153 16.1720280832222  C 16.3126266036462 16.1720280832222  16.6488858879136 15.9459740450359  16.6488858879136 15.3798206881368  C 16.6488858879136 15.3798206881368  16.6488858879136 3.9569639296941  16.6488858879136 3.9569639296941  C 16.5354490209318 3.39081057279498  16.0857528696827 3.16475653460861  15.6360567184336 3.16475653460861  C 15.6360567184336 3.16475653460861  13.4989871708306 3.16475653460861  13.4989871708306 3.16475653460861  C 13.4989871708306 3.16475653460861  13.4989871708306 4.40907200606671  13.4989871708306 4.40907200606671  C 13.4989871708306 4.74917132477947  13.274139095206 5.08723412062568  12.8244429439568 5.08723412062568  C 12.4861580013504 5.08723412062568  12.149898717083 4.86118008243943  12.149898717083 4.40907200606671  C 12.149898717083 4.40907200606671  12.149898717083 3.16475653460861  12.149898717083 3.16475653460861  L 5.73666441593514 3.16475653460861  C 5.73666441593514 3.16475653460861  5.73666441593514 4.40907200606671  5.73666441593514 4.40907200606671  C 5.73666441593514 4.74917132477947  5.51181634031059 5.08723412062568  5.06212018906149 5.08723412062568  C 4.72383524645511 5.08723412062568  4.38757596218773 4.86118008243943  4.38757596218773 4.40907200606671  C 4.38757596218773 4.40907200606671  4.38757596218773 3.16475653460861  4.38757596218773 3.16475653460861  C 4.38757596218773 3.16475653460861  2.02565833896017 3.16475653460861  2.02565833896017 3.16475653460861  C 1.46252532072924 3.16475653460861  1.12626603646186 3.39081057279498  1.12626603646186 3.9569639296941  C 1.12626603646186 3.9569639296941  1.12626603646186 15.4938659686633  1.12626603646186 15.4938659686633  C 1.12626603646186 15.833965287376  1.46455097906824 16.1720280832222  2.02565833896017 16.1720280832222  C 2.02565833896017 16.1720280832222  15.7494935854153 16.1720280832222  15.7494935854153 16.1720280832222  Z M 13.6118416224105 1.92239246993199  L 13.4989871708306 1.92247758601707  C 13.4989871708306 1.92247758601707  13.5399715013644 1.92244667517821  13.6118416224105 1.92239246993199  Z M 13.1627278865632 8.4800812162872  C 13.1627278865632 8.4800812162872  4.83727211343694 8.4800812162872  4.83727211343694 8.4800812162872  C 4.49898717083056 8.4800812162872  4.16272788656318 8.25402717810084  4.16272788656318 7.80191910172823  C 4.16272788656318 7.34981102535562  4.49898717083056 7.12375698716926  4.83727211343694 7.12375698716926  C 4.83727211343694 7.12375698716926  13.1627278865632 7.12375698716926  13.1627278865632 7.12375698716926  C 13.5010128291696 7.12375698716926  13.8372721134369 7.34981102535562  13.8372721134369 7.80191910172823  C 13.8372721134369 8.25402717810084  13.6124240378124 8.4800812162872  13.1627278865632 8.4800812162872  Z M 4.83727211343694 12.3250363883215  C 4.49898717083056 12.3250363883215  4.16272788656318 12.0989823501351  4.16272788656318 11.6468742737625  C 4.27413909520601 11.1947661973899  4.49898717083056 10.9687121592035  4.83727211343694 10.9687121592035  C 4.83727211343694 10.9687121592035  13.1627278865632 10.9687121592035  13.1627278865632 10.9687121592035  C 13.5010128291696 10.9687121592035  13.8372721134369 11.1947661973899  13.8372721134369 11.6468742737625  C 13.8372721134369 11.9869735924752  13.6124240378124 12.3250363883215  13.1627278865632 12.3250363883215  C 13.1627278865632 12.3250363883215  4.83727211343694 12.3250363883215  4.83727211343694 12.3250363883215  Z " fill-rule="nonzero" fill="#ff4771" stroke="none" transform="matrix(1 0 0 1 114 252 )" />
  </g>
</svg>