<?xml version="1.0" encoding="utf-8"?>
<svg version="1.1" xmlns:xlink="http://www.w3.org/1999/xlink" width="21px" height="20px" preserveAspectRatio="xMinYMid meet" viewBox="424 210  21 18" xmlns="http://www.w3.org/2000/svg">
  <path d="M 433 219  L 482 219  A 5 5 0 0 1 487 224 L 487 463  A 5 5 0 0 0 492 468 L 542 468  " stroke-width="2" stroke="#0099cc" fill="none" />
  <path d="M 434.5 215.5  A 3.5 3.5 0 0 0 431 219 A 3.5 3.5 0 0 0 434.5 222.5 A 3.5 3.5 0 0 0 438 219 A 3.5 3.5 0 0 0 434.5 215.5 Z M 534.6 476  L 544 468  L 534.6 460  L 538.2 468  L 534.6 476  Z " fill-rule="nonzero" fill="#0099cc" stroke="none" />
</svg>