<?xml version="1.0" encoding="utf-8"?>
<svg version="1.1" xmlns:xlink="http://www.w3.org/1999/xlink" width="21px" height="20px" preserveAspectRatio="xMinYMid meet" viewBox="892 810  21 18" xmlns="http://www.w3.org/2000/svg">
  <path d="M 901 819  L 925 819  A 5 5 0 0 1 930 824 L 930 1131  A 5 5 0 0 1 925 1136 L 917 1136  " stroke-width="2" stroke="#0099cc" fill="none" />
  <path d="M 902.5 815.5  A 3.5 3.5 0 0 0 899 819 A 3.5 3.5 0 0 0 902.5 822.5 A 3.5 3.5 0 0 0 906 819 A 3.5 3.5 0 0 0 902.5 815.5 Z M 924.4 1128  L 915 1136  L 924.4 1144  L 920.8 1136  L 924.4 1128  Z " fill-rule="nonzero" fill="#0099cc" stroke="none" />
</svg>