<?xml version="1.0" encoding="utf-8"?>
<svg version="1.1" xmlns:xlink="http://www.w3.org/1999/xlink" width="51px" height="81px" xmlns="http://www.w3.org/2000/svg">
  <defs>
    <mask fill="white" id="clip32">
      <path d="M 15 10  C 15 4.39999999999998  19.4 0  25 0  C 30.6 0  35 4.39999999999998  35 10  C 35 15.6  30.6 20  25 20  C 19.4 20  15 15.6  15 10  Z " fill-rule="evenodd" />
    </mask>
  </defs>
  <g transform="matrix(1 0 0 1 -434 -525 )">
    <path d="M 15 10  C 15 4.39999999999998  19.4 0  25 0  C 30.6 0  35 4.39999999999998  35 10  C 35 15.6  30.6 20  25 20  C 19.4 20  15 15.6  15 10  Z M 25 55  L 25.5 20  L 25.5 45.4000000000015  L 25 55  Z " fill-rule="nonzero" fill="#ffffff" stroke="none" transform="matrix(1 0 0 1 434 525 )" />
    <path d="M 15 10  C 15 4.39999999999998  19.4 0  25 0  C 30.6 0  35 4.39999999999998  35 10  C 35 15.6  30.6 20  25 20  C 19.4 20  15 15.6  15 10  Z " stroke-width="2" stroke="#cccccc" fill="none" transform="matrix(1 0 0 1 434 525 )" mask="url(#clip32)" />
    <path d="M 0 30.5  L 50 30.5  M 25.5 20  L 25.5 45.4000000000015  L 25 55  M 5 80  L 25 55  M 25 55  L 45 80  " stroke-width="1" stroke="#cccccc" fill="none" transform="matrix(1 0 0 1 434 525 )" mask="url(#clip32)" />
  </g>
</svg>