<?xml version="1.0" encoding="utf-8"?>
<svg version="1.1" xmlns:xlink="http://www.w3.org/1999/xlink" width="20px" height="21px" preserveAspectRatio="xMidYMin meet" viewBox="449 1275  18 21" xmlns="http://www.w3.org/2000/svg">
  <defs>
    <mask fill="white" id="clip37">
      <path d="M 441.5 1295  L 474.5 1295  L 474.5 1323  L 441.5 1323  Z M 441 1272  L 475 1272  L 475 1354  L 441 1354  Z " fill-rule="evenodd" />
    </mask>
  </defs>
  <path d="M 458 1295  L 458 1284  M 458 1323  L 458 1335  " stroke-width="2" stroke="#0099cc" fill="none" />
  <path d="M 458 1282  A 3.5 3.5 0 0 0 454.5 1285.5 A 3.5 3.5 0 0 0 458 1289 A 3.5 3.5 0 0 0 461.5 1285.5 A 3.5 3.5 0 0 0 458 1282 Z M 450 1327.6  L 458 1337  L 466 1327.6  L 458 1331.2  L 450 1327.6  Z " fill-rule="nonzero" fill="#0099cc" stroke="none" mask="url(#clip37)" />
</svg>