<?xml version="1.0" encoding="utf-8"?>
<svg version="1.1" xmlns:xlink="http://www.w3.org/1999/xlink" width="10px" height="259px" preserveAspectRatio="xMidYMin meet" viewBox="526 214  8 259" xmlns="http://www.w3.org/2000/svg">
  <path d="M 412 219  L 525 219  A 5 5 0 0 1 530 224 L 530 463  A 5 5 0 0 0 535 468 L 542 468  " stroke-width="2" stroke="#0099cc" fill="none" />
  <path d="M 413.5 215.5  A 3.5 3.5 0 0 0 410 219 A 3.5 3.5 0 0 0 413.5 222.5 A 3.5 3.5 0 0 0 417 219 A 3.5 3.5 0 0 0 413.5 215.5 Z M 534.6 476  L 544 468  L 534.6 460  L 538.2 468  L 534.6 476  Z " fill-rule="nonzero" fill="#0099cc" stroke="none" />
</svg>