<?xml version="1.0" encoding="utf-8"?>
<svg version="1.1" xmlns:xlink="http://www.w3.org/1999/xlink" width="21px" height="20px" preserveAspectRatio="xMinYMid meet" viewBox="391 685  21 18" xmlns="http://www.w3.org/2000/svg">
  <path d="M 400 694  L 465 694  A 5 5 0 0 0 470 689 L 470 248  A 5 5 0 0 1 475 243 L 542 243  " stroke-width="2" stroke="#0099cc" fill="none" />
  <path d="M 401.5 690.5  A 3.5 3.5 0 0 0 398 694 A 3.5 3.5 0 0 0 401.5 697.5 A 3.5 3.5 0 0 0 405 694 A 3.5 3.5 0 0 0 401.5 690.5 Z M 534.6 251  L 544 243  L 534.6 235  L 538.2 243  L 534.6 251  Z " fill-rule="nonzero" fill="#0099cc" stroke="none" />
</svg>