<?xml version="1.0" encoding="utf-8"?>
<svg version="1.1" xmlns:xlink="http://www.w3.org/1999/xlink" width="64px" height="10px" preserveAspectRatio="xMinYMid meet" viewBox="411 1131  64 8" xmlns="http://www.w3.org/2000/svg">
  <path d="M 413 1135  L 465 1135  A 5 5 0 0 0 470 1130 L 470 860  A 5 5 0 0 1 475 855 L 542 855  " stroke-width="2" stroke="#0099cc" fill="none" />
  <path d="M 414.5 1131.5  A 3.5 3.5 0 0 0 411 1135 A 3.5 3.5 0 0 0 414.5 1138.5 A 3.5 3.5 0 0 0 418 1135 A 3.5 3.5 0 0 0 414.5 1131.5 Z M 534.6 863  L 544 855  L 534.6 847  L 538.2 855  L 534.6 863  Z " fill-rule="nonzero" fill="#0099cc" stroke="none" />
</svg>