<?xml version="1.0" encoding="utf-8"?>
<svg version="1.1" xmlns:xlink="http://www.w3.org/1999/xlink" width="12px" height="12px" viewBox="166 498  12 12" xmlns="http://www.w3.org/2000/svg">
  <path d="M 172 498  C 175.36 498  178 500.64  178 504  C 178 507.36  175.36 510  172 510  C 168.64 510  166 507.36  166 504  C 166 500.64  168.64 498  172 498  Z " fill-rule="nonzero" fill="#f0f0f0" stroke="none" />
  <path d="M 172 498.5  C 175.08 498.5  177.5 500.92  177.5 504  C 177.5 507.08  175.08 509.5  172 509.5  C 168.92 509.5  166.5 507.08  166.5 504  C 166.5 500.92  168.92 498.5  172 498.5  Z " stroke-width="1" stroke="#cccccc" fill="none" />
  <path d="M 172 507  C 170.32 507  169 505.68  169 504  C 169 502.32  170.32 501  172 501  C 173.68 501  175 502.32  175 504  C 175 505.68  173.68 507  172 507  " fill-rule="nonzero" fill="#cccccc" stroke="none" />
</svg>