<?xml version="1.0" encoding="utf-8"?>
<svg version="1.1" xmlns:xlink="http://www.w3.org/1999/xlink" width="93px" height="73px" xmlns="http://www.w3.org/2000/svg">
  <g transform="matrix(1 0 0 1 -1944 -1461 )">
    <path d="M 1944 1461  L 2037 1461  L 2037 1534  L 1944 1534  L 1944 1461  " fill-rule="nonzero" fill="#cccccc" stroke="none" />
    <path d="M 1949 1466  L 2032 1466  L 2032 1529  L 1949 1529  L 1949 1466  " fill-rule="nonzero" fill="#ffffff" stroke="none" />
    <path d="M 1997.835 1482.9  C 1994.769 1482.9  1992.36 1480.491  1992.36 1477.425  C 1992.36 1474.359  1994.769 1471.95  1997.835 1471.95  C 2000.901 1471.95  2003.31 1474.359  2003.31 1477.425  C 2003.31 1480.491  2000.901 1482.9  1997.835 1482.9  " fill-rule="nonzero" fill="#cccccc" stroke="none" />
    <path d="M 1951 1527  L 1951 1494.55  L 1970.75 1479.8  L 1998.4 1499.21290322581  L 2014.2 1488.65  L 2030 1499.21290322581  L 2030 1527  L 1951 1527  " fill-rule="nonzero" fill="#169bd5" stroke="none" />
  </g>
</svg>