<?xml version="1.0" encoding="utf-8"?>
<svg version="1.1" xmlns:xlink="http://www.w3.org/1999/xlink" width="39px" height="39px" xmlns="http://www.w3.org/2000/svg">
  <g transform="matrix(1 0 0 1 -771 -926 )">
    <path d="M 771 926  L 810 926  L 810 965  L 771 965  L 771 926  " fill-rule="nonzero" fill="#cccccc" stroke="none" />
    <path d="M 774 929  L 807 929  L 807 962  L 774 962  L 774 929  " fill-rule="nonzero" fill="#ffffff" stroke="none" />
    <path d="M 794.205 937.7  C 792.567 937.7  791.28 936.413  791.28 934.775  C 791.28 933.137  792.567 931.85  794.205 931.85  C 795.843 931.85  797.13 933.137  797.13 934.775  C 797.13 936.413  795.843 937.7  794.205 937.7  " fill-rule="nonzero" fill="#cccccc" stroke="none" />
    <path d="M 775 961  L 775 943.95  L 782.75 936.2  L 793.6 942.4  L 799.8 940.85  L 806 942.4  L 806 961  L 775 961  " fill-rule="nonzero" fill="#169bd5" stroke="none" />
  </g>
</svg>