<?xml version="1.0" encoding="utf-8"?>
<svg version="1.1" xmlns:xlink="http://www.w3.org/1999/xlink" width="10px" height="75px" preserveAspectRatio="xMidYMin meet" viewBox="826 1651  8 75" xmlns="http://www.w3.org/2000/svg">
  <defs>
    <mask fill="white" id="clip62">
      <path d="M 856.5 1642  L 975.5 1642  L 975.5 1669  L 856.5 1669  Z M 820 1642  L 1084 1642  L 1084 1724  L 820 1724  Z " fill-rule="evenodd" />
    </mask>
  </defs>
  <path d="M 820 1721  L 825 1721  A 5 5 0 0 0 830 1716 L 830 1661  A 5 5 0 0 1 835 1656 L 1068 1656  A 1 1 0 0 1 1069 1657 A 1 1 0 0 0 1070 1658 " stroke-width="2" stroke="#0099cc" fill="none" mask="url(#clip62)" />
  <path d="M 1067 1665.6  L 1074 1658  L 1067 1650.4  L 1067 1665.6  Z " fill-rule="nonzero" fill="#0099cc" stroke="none" mask="url(#clip62)" />
</svg>