<?xml version="1.0" encoding="utf-8"?>
<svg version="1.1" xmlns:xlink="http://www.w3.org/1999/xlink" width="61px" height="10px" preserveAspectRatio="xMinYMid meet" viewBox="1028 515  61 8" xmlns="http://www.w3.org/2000/svg">
  <path d="M 979 473  L 1028 473  A 5 5 0 0 1 1033 478 L 1033 514  A 5 5 0 0 0 1038 519 L 1087 519  " stroke-width="2" stroke="#0099cc" fill="none" />
  <path d="M 980.5 469.5  A 3.5 3.5 0 0 0 977 473 A 3.5 3.5 0 0 0 980.5 476.5 A 3.5 3.5 0 0 0 984 473 A 3.5 3.5 0 0 0 980.5 469.5 Z M 1079.6 527  L 1089 519  L 1079.6 511  L 1083.2 519  L 1079.6 527  Z " fill-rule="nonzero" fill="#0099cc" stroke="none" />
</svg>