<?xml version="1.0" encoding="utf-8"?>
<svg version="1.1" xmlns:xlink="http://www.w3.org/1999/xlink" width="152px" height="10px" preserveAspectRatio="xMinYMid meet" viewBox="1413 1123  152 8" xmlns="http://www.w3.org/2000/svg">
  <path d="M 1415 1127  L 1555 1127  A 5 5 0 0 0 1560 1122 L 1560 156  A 5 5 0 0 1 1565 151 L 1711 151  " stroke-width="2" stroke="#0099cc" fill="none" />
  <path d="M 1416.5 1123.5  A 3.5 3.5 0 0 0 1413 1127 A 3.5 3.5 0 0 0 1416.5 1130.5 A 3.5 3.5 0 0 0 1420 1127 A 3.5 3.5 0 0 0 1416.5 1123.5 Z M 1703.6 159  L 1713 151  L 1703.6 143  L 1707.2 151  L 1703.6 159  Z " fill-rule="nonzero" fill="#0099cc" stroke="none" />
</svg>