<?xml version="1.0" encoding="utf-8"?>
<svg version="1.1" xmlns:xlink="http://www.w3.org/1999/xlink" width="10px" height="71px" preserveAspectRatio="xMidYMin meet" viewBox="1030 1011  8 71" xmlns="http://www.w3.org/2000/svg">
  <path d="M 981 1016  L 1029 1016  A 5 5 0 0 1 1034 1021 L 1034 1072  A 5 5 0 0 0 1039 1077 L 1087 1077  " stroke-width="2" stroke="#0099cc" fill="none" />
  <path d="M 982.5 1012.5  A 3.5 3.5 0 0 0 979 1016 A 3.5 3.5 0 0 0 982.5 1019.5 A 3.5 3.5 0 0 0 986 1016 A 3.5 3.5 0 0 0 982.5 1012.5 Z M 1079.6 1085  L 1089 1077  L 1079.6 1069  L 1083.2 1077  L 1079.6 1085  Z " fill-rule="nonzero" fill="#0099cc" stroke="none" />
</svg>