<?xml version="1.0" encoding="utf-8"?>
<svg version="1.1" xmlns:xlink="http://www.w3.org/1999/xlink" width="198px" height="10px" preserveAspectRatio="xMinYMid meet" viewBox="1413 1175  198 8" xmlns="http://www.w3.org/2000/svg">
  <path d="M 1415 1179  L 1601 1179  A 5 5 0 0 0 1606 1174 L 1606 280  A 5 5 0 0 1 1611 275 L 1711 275  " stroke-width="2" stroke="#0099cc" fill="none" />
  <path d="M 1416.5 1175.5  A 3.5 3.5 0 0 0 1413 1179 A 3.5 3.5 0 0 0 1416.5 1182.5 A 3.5 3.5 0 0 0 1420 1179 A 3.5 3.5 0 0 0 1416.5 1175.5 Z M 1703.6 283  L 1713 275  L 1703.6 267  L 1707.2 275  L 1703.6 283  Z " fill-rule="nonzero" fill="#0099cc" stroke="none" />
</svg>