<?xml version="1.0" encoding="utf-8"?>
<svg version="1.1" xmlns:xlink="http://www.w3.org/1999/xlink" width="34px" height="34px" preserveAspectRatio="xMinYMid meet" viewBox="1694 843  34 32" xmlns="http://www.w3.org/2000/svg">
  <path d="M 1415 1231  L 1644 1231  A 5 5 0 0 0 1649 1226 L 1649 864  A 5 5 0 0 1 1654 859 L 1711 859  " stroke-width="2" stroke="#0099cc" fill="none" />
  <path d="M 1416.5 1227.5  A 3.5 3.5 0 0 0 1413 1231 A 3.5 3.5 0 0 0 1416.5 1234.5 A 3.5 3.5 0 0 0 1420 1231 A 3.5 3.5 0 0 0 1416.5 1227.5 Z M 1703.6 867  L 1713 859  L 1703.6 851  L 1707.2 859  L 1703.6 867  Z " fill-rule="nonzero" fill="#0099cc" stroke="none" />
</svg>