<?xml version="1.0" encoding="utf-8"?>
<svg version="1.1" xmlns:xlink="http://www.w3.org/1999/xlink" width="21px" height="20px" preserveAspectRatio="xMinYMid meet" viewBox="424 207  21 18" xmlns="http://www.w3.org/2000/svg">
  <path d="M 433 216  L 445 216  A 5 5 0 0 1 450 221 L 450 1153  A 5 5 0 0 1 445 1158 L 432 1158  " stroke-width="2" stroke="#0099cc" fill="none" />
  <path d="M 434.5 212.5  A 3.5 3.5 0 0 0 431 216 A 3.5 3.5 0 0 0 434.5 219.5 A 3.5 3.5 0 0 0 438 216 A 3.5 3.5 0 0 0 434.5 212.5 Z M 439.4 1150  L 430 1158  L 439.4 1166  L 435.8 1158  L 439.4 1150  Z " fill-rule="nonzero" fill="#0099cc" stroke="none" />
</svg>