<?xml version="1.0" encoding="utf-8"?>
<svg version="1.1" xmlns:xlink="http://www.w3.org/1999/xlink" width="9px" height="16px" xmlns="http://www.w3.org/2000/svg">
  <g transform="matrix(1 0 0 1 -421 -781 )">
    <path d="M 0.91581415559142 15.9799961004383  C 1.13734458519195 16.0061096980357  1.304506777136 16.0072204534276  1.36385832704661 15.9799961004383  C 1.36385832704661 15.9799961004383  8.98060924178583 8.2280732142417  8.98060924178583 8.2280732142417  C 9.00618059308499 8.08635314901858  9.00674503874882 7.91496368281469  8.98060924178583 7.77207775034776  C 8.98060924178583 7.77207775034776  1.36385832704661 0.0201548641516638  1.36385832704661 0.0201548641516638  C 1.30507122279982 -0.00590362159437063  1.1394325761587 -0.00752079250605675  0.91581415559142 0.0201548641516638  C 0.91581415559142 0.0201548641516638  0.0197258126809174 0.932145791939092  0.0197258126809174 0.932145791939092  C -0.00579994464590072 1.17030561857928  -0.00701718040056676 1.34208420660389  0.0197258126809174 1.38814125583303  C 0.0197258126809174 1.38814125583303  6.29234421305432 7.77207775034776  6.29234421305432 7.77207775034776  C 6.38232062518341 7.91326576148504  6.38410877828301 8.08563151544786  6.29234421305432 8.2280732142417  C 6.29234421305432 8.2280732142417  0.0197258126809174 14.6120097087564  0.0197258126809174 14.6120097087564  C -0.00522902730085661 14.656813070329  -0.00788793561252987 14.8282832869509  0.0197258126809174 15.0680051726504  C 0.0197258126809174 15.0680051726504  0.91581415559142 15.9799961004383  0.91581415559142 15.9799961004383  Z " fill-rule="nonzero" fill="#c9ced6" stroke="none" transform="matrix(1 0 0 1 421 781 )" />
  </g>
</svg>