<?xml version="1.0" encoding="utf-8"?>
<svg version="1.1" xmlns:xlink="http://www.w3.org/1999/xlink" width="18px" height="18px" xmlns="http://www.w3.org/2000/svg">
  <g transform="matrix(1 0 0 1 -414 -1074 )">
    <path d="M 9 18  C 13.9707 18  18 13.9703999941407  18 9  C 18 4.02960000585927  13.9703999941406 0  9 0  C 4.02930000000003 0  0 4.02960000585927  0 9  C 0 13.9706999999999  4.02960000585938 18  9 18  Z M 12.249 7.34459999414048  C 12.5420999941407 7.05179998828089  13.0167 7.05179998828089  13.3095000058594 7.34459999414048  C 13.6026000000001 7.63739999999962  13.6026000000001 8.11229999414036  13.3097999941407 8.40509999999995  C 13.3097999941407 8.40509999999995  9.5598 12.1550999941405  9.5598 12.1550999941405  C 9.41937295319133 12.2959763043741  9.22861173499132 12.3751092849438  9.02970000000005 12.375  C 8.83769999414073 12.375  8.58719998828133 12.3017999941408  8.44050000585946 12.1550999941405  C 8.44050000585946 12.1550999941405  4.69049999414062 8.40509999999995  4.69049999414062 8.40509999999995  C 4.39740000000006 8.11229999414036  4.39740000000006 7.63739999999962  4.69049999414062 7.34459999414048  C 4.9835999882813 7.05179998828089  5.45789998828127 7.05179998828089  5.75099999999998 7.34459999414048  C 5.75099999999998 7.34459999414048  9 10.5935999941407  9 10.5935999941407  C 9 10.5935999941407  12.249 7.34459999414048  12.249 7.34459999414048  Z " fill-rule="nonzero" fill="#ff4771" stroke="none" transform="matrix(1 0 0 1 414 1074 )" />
  </g>
</svg>