<?xml version="1.0" encoding="utf-8"?>
<svg version="1.1" xmlns:xlink="http://www.w3.org/1999/xlink" width="23px" height="23px" xmlns="http://www.w3.org/2000/svg">
  <g transform="matrix(1 0 0 1 -128 -654 )">
    <path d="M 23 11.5  C 23 10.8376571872852  22.4630590299605 10.3007156048467  21.8006546699332 10.3007156048467  C 21.8006546699332 10.3007156048467  12.6993002884621 10.3007156048467  12.6993002884621 10.3007156048467  C 12.6993002884621 10.3007156048467  12.6993002884621 1.19930691692599  12.6993002884621 1.19930691692599  C 12.6993002884621 0.53696410421118  12.1623367976202 0  11.5 0  C 10.8376406815774 0  10.3006997115379 0.536941582438501  10.3006997115379 1.19930691692599  C 10.3006997115379 1.19930691692599  10.3006997115379 10.3007156048467  10.3006997115379 10.3007156048467  C 10.3006997115379 10.3007156048467  1.1993002884621 10.3007156048467  1.1993002884621 10.3007156048467  C 0.536940970039499 10.3007156048467  0 10.8376571872852  0 11.5  C 0 12.1623653344875  0.536940970039499 12.6993519604714  1.1993002884621 12.6993519604714  C 1.1993002884621 12.6993519604714  10.3006997115379 12.6993519604714  10.3006997115379 12.6993519604714  C 10.3006997115379 12.6993519604714  10.3006997115379 21.8007381266194  10.3006997115379 21.8007381266194  C 10.3006997115379 22.4630358957888  10.8376406815774 23  11.5 23  C 12.1623367976202 23  12.6993002884621 22.4630358957888  12.6993002884621 21.8007381266194  C 12.6993002884621 21.8007381266194  12.6993002884621 12.6993519604714  12.6993002884621 12.6993519604714  C 12.6993002884621 12.6993519604714  21.8006546699332 12.6993519604714  21.8006546699332 12.6993519604714  C 22.4630590299605 12.6993519604714  23 12.1623653344875  23 11.5  Z " fill-rule="nonzero" fill="#616b80" stroke="none" transform="matrix(1 0 0 1 128 654 )" />
  </g>
</svg>