<?xml version="1.0" encoding="utf-8"?>
<svg version="1.1" xmlns:xlink="http://www.w3.org/1999/xlink" width="118px" height="86px" xmlns="http://www.w3.org/2000/svg">
  <g transform="matrix(1 0 0 1 -636 -216 )">
    <path d="M 636 216  L 754 216  L 754 302  L 636 302  L 636 216  " fill-rule="nonzero" fill="#cccccc" stroke="none" />
    <path d="M 642 222  L 748 222  L 748 296  L 642 296  L 642 222  " fill-rule="nonzero" fill="#ffffff" stroke="none" />
    <path d="M 703.81 241.8  C 700.198 241.8  697.36 238.962  697.36 235.35  C 697.36 231.738  700.198 228.9  703.81 228.9  C 707.422 228.9  710.26 231.738  710.26 235.35  C 710.26 238.962  707.422 241.8  703.81 241.8  " fill-rule="nonzero" fill="#cccccc" stroke="none" />
    <path d="M 644 294  L 644 255.5  L 669.5 238  L 705.2 263.389830508475  L 725.6 248.5  L 746 263.389830508475  L 746 294  L 644 294  " fill-rule="nonzero" fill="#169bd5" stroke="none" />
  </g>
</svg>