<?xml version="1.0" encoding="utf-8"?>
<svg version="1.1" xmlns:xlink="http://www.w3.org/1999/xlink" width="148px" height="108px" xmlns="http://www.w3.org/2000/svg">
  <g transform="matrix(1 0 0 1 -634 -438 )">
    <path d="M 634 438  L 782 438  L 782 546  L 634 546  L 634 438  " fill-rule="nonzero" fill="#cccccc" stroke="none" />
    <path d="M 642 446  L 774 446  L 774 538  L 642 538  L 642 446  " fill-rule="nonzero" fill="#ffffff" stroke="none" />
    <path d="M 719.06 470.4  C 714.524 470.4  710.96 466.836  710.96 462.3  C 710.96 457.764  714.524 454.2  719.06 454.2  C 723.596 454.2  727.16 457.764  727.16 462.3  C 727.16 466.836  723.596 470.4  719.06 470.4  " fill-rule="nonzero" fill="#cccccc" stroke="none" />
    <path d="M 645 536  L 645 488.15  L 676.75 466.4  L 721.2 497.908108108108  L 746.6 479.45  L 772 497.908108108108  L 772 536  L 645 536  " fill-rule="nonzero" fill="#169bd5" stroke="none" />
  </g>
</svg>