<?xml version="1.0" encoding="utf-8"?>
<svg version="1.1" xmlns:xlink="http://www.w3.org/1999/xlink" width="24px" height="24px" xmlns="http://www.w3.org/2000/svg">
  <g transform="matrix(1 0 0 1 -397 -1213 )">
    <path d="M 409 1213  C 415.72 1213  421 1218.28  421 1225  C 421 1231.72  415.72 1237  409 1237  C 402.28 1237  397 1231.72  397 1225  C 397 1218.28  402.28 1213  409 1213  Z " fill-rule="nonzero" fill="#ffffff" stroke="none" />
    <path d="M 409 1213.5  C 415.44 1213.5  420.5 1218.56  420.5 1225  C 420.5 1231.44  415.44 1236.5  409 1236.5  C 402.56 1236.5  397.5 1231.44  397.5 1225  C 397.5 1218.56  402.56 1213.5  409 1213.5  Z " stroke-width="1" stroke="#cccccc" fill="none" />
  </g>
</svg>