<?xml version="1.0" encoding="utf-8"?>
<svg version="1.1" xmlns:xlink="http://www.w3.org/1999/xlink" width="34px" height="28px" xmlns="http://www.w3.org/2000/svg">
  <g transform="matrix(1 0 0 1 -372 -257 )">
    <path d="M 372 257  L 406 257  L 406 285  L 372 285  L 372 257  " fill-rule="nonzero" fill="#cccccc" stroke="none" />
    <path d="M 374 259  L 404 259  L 404 283  L 374 283  L 374 259  " fill-rule="nonzero" fill="#ffffff" stroke="none" />
    <path d="M 391.78 265.4  C 390.604 265.4  389.68 264.476  389.68 263.3  C 389.68 262.124  390.604 261.2  391.78 261.2  C 392.956 261.2  393.88 262.124  393.88 263.3  C 393.88 264.476  392.956 265.4  391.78 265.4  " fill-rule="nonzero" fill="#cccccc" stroke="none" />
    <path d="M 375 283  L 375 270.35  L 382.25 264.6  L 392.4 271.635294117647  L 398.2 268.05  L 404 271.635294117647  L 404 283  L 375 283  " fill-rule="nonzero" fill="#169bd5" stroke="none" />
  </g>
</svg>