<?xml version="1.0" encoding="utf-8"?>
<svg version="1.1" xmlns:xlink="http://www.w3.org/1999/xlink" width="10px" height="25px" preserveAspectRatio="xMidYMin meet" viewBox="1321 874  8 25" xmlns="http://www.w3.org/2000/svg">
  <path d="M 441 514  L 517 514  A 5 5 0 0 1 522 519 L 522 889  A 5 5 0 0 0 527 894 L 1320 894  A 5 5 0 0 0 1325 889 L 1325 876  " stroke-width="2" stroke="#0099cc" fill="none" />
  <path d="M 442.5 510.5  A 3.5 3.5 0 0 0 439 514 A 3.5 3.5 0 0 0 442.5 517.5 A 3.5 3.5 0 0 0 446 514 A 3.5 3.5 0 0 0 442.5 510.5 Z M 1333 883.4  L 1325 874  L 1317 883.4  L 1325 879.8  L 1333 883.4  Z " fill-rule="nonzero" fill="#0099cc" stroke="none" />
</svg>