<?xml version="1.0" encoding="utf-8"?>
<svg version="1.1" xmlns:xlink="http://www.w3.org/1999/xlink" width="10px" height="206px" preserveAspectRatio="xMidYMin meet" viewBox="521 267  8 206" xmlns="http://www.w3.org/2000/svg">
  <path d="M 440 272  L 520 272  A 5 5 0 0 1 525 277 L 525 463  A 5 5 0 0 0 530 468 L 610 468  " stroke-width="2" stroke="#0099cc" fill="none" />
  <path d="M 441.5 268.5  A 3.5 3.5 0 0 0 438 272 A 3.5 3.5 0 0 0 441.5 275.5 A 3.5 3.5 0 0 0 445 272 A 3.5 3.5 0 0 0 441.5 268.5 Z M 602.6 476  L 612 468  L 602.6 460  L 606.2 468  L 602.6 476  Z " fill-rule="nonzero" fill="#0099cc" stroke="none" />
</svg>