<?xml version="1.0" encoding="utf-8"?>
<svg version="1.1" xmlns:xlink="http://www.w3.org/1999/xlink" width="105px" height="30px" xmlns="http://www.w3.org/2000/svg">
  <g transform="matrix(1 0 0 1 -252 -280 )">
    <path d="M 345.14589803375 280.5  C 345.14589803375 280.5  347.725685141703 280.868541015422  347.725685141703 280.868541015422  C 347.725685141703 280.868541015422  356.453939220413 295  356.453939220413 295  C 356.453939220413 295  347.725685141703 309.131458984578  347.725685141703 309.131458984578  C 347.725685141703 309.131458984578  345.14589803375 309.5  345.14589803375 309.5  C 345.14589803375 309.5  252.5 309.5  252.5 309.5  C 252.5 309.5  252.5 280.5  252.5 280.5  C 252.5 280.5  345.14589803375 280.5  345.14589803375 280.5  Z " fill-rule="nonzero" fill="#ffffff" stroke="none" />
    <path d="M 345.14589803375 280.5  C 345.14589803375 280.5  347.725685141703 280.868541015422  347.725685141703 280.868541015422  C 347.725685141703 280.868541015422  356.453939220413 295  356.453939220413 295  C 356.453939220413 295  347.725685141703 309.131458984578  347.725685141703 309.131458984578  C 347.725685141703 309.131458984578  345.14589803375 309.5  345.14589803375 309.5  C 345.14589803375 309.5  252.5 309.5  252.5 309.5  C 252.5 309.5  252.5 280.5  252.5 280.5  C 252.5 280.5  345.14589803375 280.5  345.14589803375 280.5  Z " stroke-width="1" stroke="#e4e4e4" fill="none" />
  </g>
</svg>