<?xml version="1.0" encoding="utf-8"?>
<svg version="1.1" xmlns:xlink="http://www.w3.org/1999/xlink" width="105px" height="30px" xmlns="http://www.w3.org/2000/svg">
  <g transform="matrix(1 0 0 1 -80 -280 )">
    <path d="M 173.14589803375 280.5  C 173.14589803375 280.5  175.725685141703 280.868541015422  175.725685141703 280.868541015422  C 175.725685141703 280.868541015422  184.453939220413 295  184.453939220413 295  C 184.453939220413 295  175.725685141703 309.131458984578  175.725685141703 309.131458984578  C 175.725685141703 309.131458984578  173.14589803375 309.5  173.14589803375 309.5  C 173.14589803375 309.5  80.5 309.5  80.5 309.5  C 80.5 309.5  80.5 280.5  80.5 280.5  C 80.5 280.5  173.14589803375 280.5  173.14589803375 280.5  Z " fill-rule="nonzero" fill="#ffffff" stroke="none" />
    <path d="M 173.14589803375 280.5  C 173.14589803375 280.5  175.725685141703 280.868541015422  175.725685141703 280.868541015422  C 175.725685141703 280.868541015422  184.453939220413 295  184.453939220413 295  C 184.453939220413 295  175.725685141703 309.131458984578  175.725685141703 309.131458984578  C 175.725685141703 309.131458984578  173.14589803375 309.5  173.14589803375 309.5  C 173.14589803375 309.5  80.5 309.5  80.5 309.5  C 80.5 309.5  80.5 280.5  80.5 280.5  C 80.5 280.5  173.14589803375 280.5  173.14589803375 280.5  Z " stroke-width="1" stroke="#1abc9c" fill="none" />
  </g>
</svg>