<?xml version="1.0" encoding="utf-8"?>
<svg version="1.1" xmlns:xlink="http://www.w3.org/1999/xlink" width="137px" height="89px" xmlns="http://www.w3.org/2000/svg">
  <g transform="matrix(1 0 0 1 -1077 -754 )">
    <path d="M 1077 754  L 1214 754  L 1214 843  L 1077 843  L 1077 754  " fill-rule="nonzero" fill="#cccccc" stroke="none" />
    <path d="M 1083 760  L 1208 760  L 1208 837  L 1083 837  L 1083 760  " fill-rule="nonzero" fill="#ffffff" stroke="none" />
    <path d="M 1154.915 780.7  C 1151.177 780.7  1148.24 777.763  1148.24 774.025  C 1148.24 770.287  1151.177 767.35  1154.915 767.35  C 1158.653 767.35  1161.59 770.287  1161.59 774.025  C 1161.59 777.763  1158.653 780.7  1154.915 780.7  " fill-rule="nonzero" fill="#cccccc" stroke="none" />
    <path d="M 1085 835  L 1085 794.85  L 1115.25 776.6  L 1157.6 806.54598540146  L 1181.8 787.55  L 1206 806.54598540146  L 1206 835  L 1085 835  " fill-rule="nonzero" fill="#169bd5" stroke="none" />
  </g>
</svg>