<?xml version="1.0" encoding="utf-8"?>
<svg version="1.1" xmlns:xlink="http://www.w3.org/1999/xlink" width="102px" height="74px" xmlns="http://www.w3.org/2000/svg">
  <g transform="matrix(1 0 0 1 -1627 -503 )">
    <path d="M 1627 503  L 1729 503  L 1729 577  L 1627 577  L 1627 503  " fill-rule="nonzero" fill="#cccccc" stroke="none" />
    <path d="M 1632 508  L 1724 508  L 1724 572  L 1632 572  L 1632 508  " fill-rule="nonzero" fill="#ffffff" stroke="none" />
    <path d="M 1685.59 525.2  C 1682.482 525.2  1680.04 522.758  1680.04 519.65  C 1680.04 516.542  1682.482 514.1  1685.59 514.1  C 1688.698 514.1  1691.14 516.542  1691.14 519.65  C 1691.14 522.758  1688.698 525.2  1685.59 525.2  " fill-rule="nonzero" fill="#cccccc" stroke="none" />
    <path d="M 1634 570  L 1634 537  L 1656 522  L 1686.8 543.882352941176  L 1704.4 531  L 1722 543.882352941176  L 1722 570  L 1634 570  " fill-rule="nonzero" fill="#169bd5" stroke="none" />
  </g>
</svg>