<?xml version="1.0" encoding="utf-8"?>
<svg version="1.1" xmlns:xlink="http://www.w3.org/1999/xlink" width="20px" height="20px" xmlns="http://www.w3.org/2000/svg">
  <g transform="matrix(1 0 0 1 -806 -316 )">
    <path d="M 816 316  C 821.6 316  826 320.4  826 326  C 826 331.6  821.6 336  816 336  C 810.4 336  806 331.6  806 326  C 806 320.4  810.4 316  816 316  Z " fill-rule="nonzero" fill="#ffffff" stroke="none" />
    <path d="M 816 316.5  C 821.32 316.5  825.5 320.68  825.5 326  C 825.5 331.32  821.32 335.5  816 335.5  C 810.68 335.5  806.5 331.32  806.5 326  C 806.5 320.68  810.68 316.5  816 316.5  Z " stroke-width="1" stroke="#cccccc" fill="none" />
  </g>
</svg>