<?xml version="1.0" encoding="utf-8"?>
<svg version="1.1" xmlns:xlink="http://www.w3.org/1999/xlink" width="10px" height="314px" preserveAspectRatio="xMidYMin meet" viewBox="536 1285  8 314" xmlns="http://www.w3.org/2000/svg">
  <path d="M 401 1300  L 401 1295  A 5 5 0 0 1 406 1290 L 535 1290  A 5 5 0 0 1 540 1295 L 540 1589  A 5 5 0 0 0 545 1594 L 550 1594  " stroke-width="2" stroke="#0099cc" fill="none" />
  <path d="M 401 1295  A 3.5 3.5 0 0 0 397.5 1298.5 A 3.5 3.5 0 0 0 401 1302 A 3.5 3.5 0 0 0 404.5 1298.5 A 3.5 3.5 0 0 0 401 1295 Z M 542.6 1602  L 552 1594  L 542.6 1586  L 546.2 1594  L 542.6 1602  Z " fill-rule="nonzero" fill="#0099cc" stroke="none" />
</svg>