<?xml version="1.0" encoding="utf-8"?>
<svg version="1.1" xmlns:xlink="http://www.w3.org/1999/xlink" width="10px" height="693px" preserveAspectRatio="xMidYMin meet" viewBox="521 229  8 693" xmlns="http://www.w3.org/2000/svg">
  <path d="M 447 917  L 520 917  A 5 5 0 0 0 525 912 L 525 239  A 5 5 0 0 1 530 234 L 560 234  " stroke-width="2" stroke="#0099cc" fill="none" />
  <path d="M 448.5 913.5  A 3.5 3.5 0 0 0 445 917 A 3.5 3.5 0 0 0 448.5 920.5 A 3.5 3.5 0 0 0 452 917 A 3.5 3.5 0 0 0 448.5 913.5 Z M 552.6 242  L 562 234  L 552.6 226  L 556.2 234  L 552.6 242  Z " fill-rule="nonzero" fill="#0099cc" stroke="none" />
</svg>