<?xml version="1.0" encoding="utf-8"?>
<svg version="1.1" xmlns:xlink="http://www.w3.org/1999/xlink" width="59px" height="10px" preserveAspectRatio="xMinYMid meet" viewBox="983 463  59 8" xmlns="http://www.w3.org/2000/svg">
  <path d="M 445 959  L 448 959  A 5 5 0 0 1 453 964 L 453 975  A 5 5 0 0 0 458 980 L 983 980  A 5 5 0 0 0 988 975 L 988 472  A 5 5 0 0 1 993 467 L 1040 467  " stroke-width="2" stroke="#0099cc" fill="none" />
  <path d="M 446.5 955.5  A 3.5 3.5 0 0 0 443 959 A 3.5 3.5 0 0 0 446.5 962.5 A 3.5 3.5 0 0 0 450 959 A 3.5 3.5 0 0 0 446.5 955.5 Z M 1032.6 475  L 1042 467  L 1032.6 459  L 1036.2 467  L 1032.6 475  Z " fill-rule="nonzero" fill="#0099cc" stroke="none" />
</svg>