<?xml version="1.0" encoding="utf-8"?>
<svg version="1.1" xmlns:xlink="http://www.w3.org/1999/xlink" width="21px" height="10px" preserveAspectRatio="xMinYMid meet" viewBox="1505 464  21 8" xmlns="http://www.w3.org/2000/svg">
  <path d="M 1399 204  L 1505 204  A 5 5 0 0 1 1510 209 L 1510 463  A 5 5 0 0 0 1515 468 L 1524 468  " stroke-width="2" stroke="#0099cc" fill="none" />
  <path d="M 1400.5 200.5  A 3.5 3.5 0 0 0 1397 204 A 3.5 3.5 0 0 0 1400.5 207.5 A 3.5 3.5 0 0 0 1404 204 A 3.5 3.5 0 0 0 1400.5 200.5 Z M 1516.6 476  L 1526 468  L 1516.6 460  L 1520.2 468  L 1516.6 476  Z " fill-rule="nonzero" fill="#0099cc" stroke="none" />
</svg>