<?xml version="1.0" encoding="utf-8"?>
<svg version="1.1" xmlns:xlink="http://www.w3.org/1999/xlink" width="34px" height="34px" preserveAspectRatio="xMinYMid meet" viewBox="1949 452  34 32" xmlns="http://www.w3.org/2000/svg">
  <path d="M 1883 249  L 1919 249  A 5 5 0 0 1 1924 254 L 1924 463  A 5 5 0 0 0 1929 468 L 1966 468  " stroke-width="2" stroke="#0099cc" fill="none" />
  <path d="M 1884.5 245.5  A 3.5 3.5 0 0 0 1881 249 A 3.5 3.5 0 0 0 1884.5 252.5 A 3.5 3.5 0 0 0 1888 249 A 3.5 3.5 0 0 0 1884.5 245.5 Z M 1958.6 476  L 1968 468  L 1958.6 460  L 1962.2 468  L 1958.6 476  Z " fill-rule="nonzero" fill="#0099cc" stroke="none" />
</svg>