<?xml version="1.0" encoding="utf-8"?>
<svg version="1.1" xmlns:xlink="http://www.w3.org/1999/xlink" width="34px" height="34px" preserveAspectRatio="xMinYMid meet" viewBox="2849 451  34 32" xmlns="http://www.w3.org/2000/svg">
  <path d="M 2330 814  L 2369 814  A 5 5 0 0 1 2374 819 L 2374 888  A 5 5 0 0 0 2379 893 L 2796 893  A 5 5 0 0 0 2801 888 L 2801 472  A 5 5 0 0 1 2806 467 L 2866 467  " stroke-width="2" stroke="#0099cc" fill="none" />
  <path d="M 2331.5 810.5  A 3.5 3.5 0 0 0 2328 814 A 3.5 3.5 0 0 0 2331.5 817.5 A 3.5 3.5 0 0 0 2335 814 A 3.5 3.5 0 0 0 2331.5 810.5 Z M 2858.6 475  L 2868 467  L 2858.6 459  L 2862.2 467  L 2858.6 475  Z " fill-rule="nonzero" fill="#0099cc" stroke="none" />
</svg>